<?xml version="1.0" encoding="UTF-8"?>
<svg version="1.1" xmlns="http://www.w3.org/2000/svg" width="1024" height="1024">
<path d="M0 0 C337.92 0 675.84 0 1024 0 C1024 337.92 1024 675.84 1024 1024 C686.08 1024 348.16 1024 0 1024 C0 686.08 0 348.16 0 0 Z " fill="#FEFEFE" transform="translate(0,0)"/>
<path d="M0 0 C337.92 0 675.84 0 1024 0 C1024 337.92 1024 675.84 1024 1024 C686.08 1024 348.16 1024 0 1024 C0 686.08 0 348.16 0 0 Z M471.74267578 94.68798828 C468.86070129 95.01584687 465.97623831 95.30369459 463.08984375 95.58984375 C412.68343992 100.83958751 362.98369801 115.55323083 318.01611328 138.95507812 C315.83940019 140.08323652 313.65242941 141.18995942 311.46484375 142.296875 C270.42058739 163.2524055 230.13493211 193.45461744 200.05859375 228.6015625 C198.42155046 230.50885772 196.76688403 232.394556 195.09765625 234.2734375 C134.17680419 303.13405772 97.80953296 395.79369358 96.46459961 535.16186523 C101.11523989 604.80940575 123.96958251 675.01125938 163 733 C163.82951172 734.23508301 163.82951172 734.23508301 164.67578125 735.49511719 C172.55548002 747.15013438 180.93128539 758.24872514 190 769 C190.49177734 769.58942383 190.98355469 770.17884766 191.49023438 770.78613281 C252.34847035 843.71038754 338.49167757 895.26566299 473.48681641 918.79541016 C486.12404739 919.82416473 498.69890053 920.24119041 511.375 920.25 C512.26162323 920.25067474 513.14824646 920.25134949 514.06173706 920.25204468 C531.83830968 920.23081999 549.3590463 919.16089123 567 917 C567.66221558 916.91985657 568.32443115 916.83971313 569.00671387 916.75714111 C658.64042382 905.78063583 742.39480779 862.82011545 827 779 C827.84175781 778.04738281 828.68351563 777.09476563 829.55078125 776.11328125 C871.88896045 728.04188178 901.38684946 668.88137834 917.22460938 607.02294922 C917.86376938 604.5311107 918.52623529 602.04813863 919.203125 599.56640625 C921.65160581 590.07368502 923.13331334 580.42848743 924.625 570.75 C924.72968597 570.07787476 924.83437195 569.40574951 924.94223022 568.71325684 C928.18918368 547.66988927 929.37786143 526.91688973 929.3125 505.625 C929.31067719 504.3918808 929.30885437 503.1587616 929.30697632 501.88827515 C929.26022399 483.08333161 928.73668724 464.63156066 926 446 C925.83371094 444.82228027 925.66742187 443.64456055 925.49609375 442.43115234 C919.84300413 403.43006832 908.06829099 365.91958906 892 330 C891.47889648 328.81325684 891.47889648 328.81325684 890.94726562 327.60253906 C882.31094788 307.97374792 871.23708204 289.57462453 859 272 C858.36481445 271.07550049 858.36481445 271.07550049 857.71679688 270.13232422 C850.98301256 260.33845646 843.59503485 251.13582136 836 242 C835.24638184 241.08758545 835.24638184 241.08758545 834.47753906 240.15673828 C829.49276624 234.12698484 824.44970721 228.26737863 818.8203125 222.8203125 C816.97747156 220.97747156 815.3044862 219.05444875 813.625 217.0625 C810.28909006 213.193145 806.62257855 209.84681377 802.7890625 206.4765625 C800.81556554 204.72418565 798.87858086 202.95947782 796.9609375 201.1484375 C789.31849161 193.93756226 781.36339067 187.35503305 773 181 C772.0423877 180.26499268 772.0423877 180.26499268 771.06542969 179.51513672 C722.25325345 142.05714948 666.56082345 117.5563091 607 103 C605.57204102 102.64832764 605.57204102 102.64832764 604.11523438 102.28955078 C589.28965321 98.70601942 574.1283002 96.80505759 559 95 C557.47391113 94.81775879 557.47391113 94.81775879 555.91699219 94.63183594 C528.32963856 91.51277976 499.32419633 91.52911321 471.74267578 94.68798828 Z " fill="#FEFEFE" transform="translate(0,0)"/>
<path d="M0 0 C1.3317778 -0.00151062 1.3317778 -0.00151062 2.69046021 -0.00305176 C19.78565037 0.00992589 36.53240326 1.08927179 53.5 3.25 C55.20881348 3.4668042 55.20881348 3.4668042 56.95214844 3.68798828 C125.97969513 12.76632715 196.82534784 38.55667945 251.83740234 81.95214844 C254.4122733 83.96213581 257.05452349 85.87960155 259.6875 87.8125 C269.96970716 95.53459063 279.53697295 104.06428614 288.94677734 112.81445312 C290.58641084 114.32986415 292.23904423 115.83005727 293.89453125 117.328125 C299.10542604 122.05768322 304.19089283 126.73774363 308.7109375 132.1484375 C310.52665762 134.28131397 312.42340033 136.32443899 314.33959961 138.36694336 C320.35223962 144.7958991 325.82650189 151.54733751 331.17675781 158.53271484 C332.43451406 160.16501327 333.70951214 161.78177806 334.9921875 163.39453125 C345.18861353 176.34366655 354.16632437 190.17616066 362.43652344 204.42431641 C363.48949044 206.23195811 364.56062125 208.02793122 365.6328125 209.82421875 C391.03909971 253.00058554 406.56328056 303.76806802 413.5 353.25 C413.65243164 354.3009082 413.80486328 355.35181641 413.96191406 356.43457031 C419.05086626 393.1343789 419.12706652 432.62976004 413.5 469.25 C413.25056641 471.01827148 413.25056641 471.01827148 412.99609375 472.82226562 C403.72176118 538.32653306 378.30772088 603.22120303 338.5 656.25 C338.07025879 656.8284668 337.64051758 657.40693359 337.19775391 658.00292969 C330.96570891 666.37133406 324.31131084 674.35099146 317.5 682.25 C316.88511719 682.96671875 316.27023437 683.6834375 315.63671875 684.421875 C313.94131427 686.38028972 312.22636385 688.31881332 310.5 690.25 C309.7265625 691.11625 308.953125 691.9825 308.15625 692.875 C298.20469233 703.88025201 287.90232855 714.73360792 276.5 724.25 C275.11167969 725.45462891 275.11167969 725.45462891 273.6953125 726.68359375 C251.68328766 745.73378755 227.0683741 762.35571593 201.5 776.25 C200.61957031 776.73130371 199.73914063 777.21260742 198.83203125 777.70849609 C168.25378124 794.32502421 136.17994969 806.53149224 102.5 815.25 C101.1699292 815.60336426 101.1699292 815.60336426 99.81298828 815.96386719 C52.90544047 828.36054618 1.61649509 830.5120983 -46.5 825.25 C-47.43763184 825.15348145 -48.37526367 825.05696289 -49.34130859 824.95751953 C-127.05482252 816.78209545 -201.96810148 784.33198077 -262.5 735.25 C-263.45003906 734.49332031 -264.40007812 733.73664062 -265.37890625 732.95703125 C-271.81553473 727.78392301 -277.92009184 722.29646155 -283.96191406 716.67480469 C-285.52685077 715.22512681 -287.10146073 713.78675341 -288.6796875 712.3515625 C-296.03155774 705.66525154 -303.14512429 698.93466666 -309.6328125 691.39453125 C-311.63153645 689.09892571 -313.68945229 686.865204 -315.75 684.625 C-320.85181051 678.96883317 -325.51112011 673.00722303 -330.15771484 666.97753906 C-331.38639658 665.39620913 -332.63929875 663.83377545 -333.89453125 662.2734375 C-347.20375228 645.54310659 -358.35420992 627.03404387 -368.5 608.25 C-368.95294434 607.41275391 -369.40588867 606.57550781 -369.87255859 605.71289062 C-382.80016507 581.52185714 -392.95957461 555.60197752 -400.5 529.25 C-400.80631348 528.18007813 -401.11262695 527.11015625 -401.42822266 526.0078125 C-407.43286901 504.68583068 -411.53379712 483.10309775 -414.25 461.125 C-414.36569336 460.19155762 -414.48138672 459.25811523 -414.60058594 458.29638672 C-416.38903084 442.68690486 -416.70903304 427.00916771 -416.6875 411.3125 C-416.68656342 410.41926025 -416.68562683 409.52602051 -416.68466187 408.60571289 C-416.482585 319.08665819 -387.56833935 231.09753659 -332.5 160.25 C-331.55640625 159.03376953 -331.55640625 159.03376953 -330.59375 157.79296875 C-316.51742471 139.93795778 -301.1983368 122.11265777 -283.8984375 107.30859375 C-281.99114228 105.67155046 -280.105444 104.01688403 -278.2265625 102.34765625 C-211.65718125 43.47823158 -123.95453603 7.85031914 -35.5 1.25 C-34.3764209 1.16459961 -33.2528418 1.07919922 -32.09521484 0.99121094 C-21.39492436 0.24589049 -10.72482533 0.00856042 0 0 Z M-236.5 154.25 C-237.07476074 154.76836426 -237.64952148 155.28672852 -238.24169922 155.82080078 C-248.17863389 164.80599731 -257.82860316 174.01990166 -266.5 184.25 C-267.30953125 185.18199219 -268.1190625 186.11398437 -268.953125 187.07421875 C-318.07444235 243.89225206 -351.21294556 319.80755673 -351.73828125 395.5703125 C-351.74812042 396.73502075 -351.75795959 397.899729 -351.76809692 399.09973145 C-352.05436787 435.85708319 -352.05436787 435.85708319 -347.5 472.25 C-347.25330566 473.53326172 -347.00661133 474.81652344 -346.75244141 476.13867188 C-334.85647686 536.60647002 -308.58573295 594.00183669 -267.5 640.25 C-266.87029297 640.96583252 -266.24058594 641.68166504 -265.59179688 642.41918945 C-259.98119418 648.7374187 -254.14463919 654.79160838 -248.17138672 660.76391602 C-246.6282647 662.30923066 -245.09335694 663.86240446 -243.55859375 665.41601562 C-237.1993519 671.81171505 -230.59746578 677.66722902 -223.5 683.25 C-222.37440674 684.15649292 -222.37440674 684.15649292 -221.22607422 685.08129883 C-164.34706651 730.884278 -88.10874313 762.15401765 -14.4921875 762.453125 C-13.36845734 762.45882507 -12.24472717 762.46452515 -11.08694458 762.47039795 C-8.71536177 762.47979263 -6.34376622 762.48635974 -3.97216797 762.49023438 C-0.43302003 762.49984249 3.10552148 762.53087964 6.64453125 762.5625 C99.25703628 762.99075471 186.6091523 722.16931472 251.94091797 657.97680664 C258.12406175 651.84808957 264.10503796 645.72719353 269.4453125 638.83984375 C271.18036887 636.65288107 272.96988062 634.5765529 274.82421875 632.4921875 C327.74354757 572.33933193 352.08705845 489.47285494 351.8125 410.5625 C351.81067719 409.46848877 351.80885437 408.37447754 351.80697632 407.24731445 C351.76075181 390.73417323 351.26515452 374.56548133 348.5 358.25 C348.32307617 357.17540527 348.14615234 356.10081055 347.96386719 354.99365234 C342.67886635 323.6168123 333.54827174 292.85073156 319.5 264.25 C319.02578613 263.28239746 318.55157227 262.31479492 318.06298828 261.31787109 C305.33141116 235.59023858 289.95721543 212.20502952 271.5 190.25 C270.63655257 189.1993553 269.77327979 188.14856705 268.91015625 187.09765625 C263.01788106 180.00033038 256.76946612 173.33865756 250.25 166.8125 C249.50564697 166.06734131 248.76129395 165.32218262 247.99438477 164.55444336 C243.31866432 159.92547492 238.49278097 155.53303591 233.5 151.25 C232.51257813 150.38117188 231.52515625 149.51234375 230.5078125 148.6171875 C191.72817193 115.09224078 146.13909758 93.29338377 97.5 78.25 C96.51531738 77.94449219 95.53063477 77.63898438 94.51611328 77.32421875 C79.84307583 72.87525113 64.64013801 70.49747291 49.5 68.25 C48.36900879 68.08193848 47.23801758 67.91387695 46.07275391 67.74072266 C-50.15383673 54.14302754 -153.40344406 83.137179 -236.5 154.25 Z " fill="#005E37" transform="translate(512.5,92.75)"/>
<path d="M0 0 C0.79084488 -0.00938095 1.58168976 -0.0187619 2.39649963 -0.02842712 C3.66384193 -0.01157616 3.66384193 -0.01157616 4.95678711 0.00561523 C5.8318541 0.00416 6.70692108 0.00270477 7.60850525 0.00120544 C9.45518327 0.00286301 11.3018753 0.01440836 13.1484375 0.03515625 C15.97772724 0.06414338 18.80514675 0.0557564 21.63452148 0.04272461 C23.42945248 0.04896121 25.22437755 0.05735155 27.01928711 0.06811523 C27.86620621 0.0651796 28.71312531 0.06224396 29.58570862 0.05921936 C35.43998751 0.1534905 35.43998751 0.1534905 37.6464653 1.74872971 C39.26574664 3.97476743 39.28875446 5.21511651 39.27325439 7.95343018 C39.27567642 8.86458084 39.27809845 9.77573151 39.28059387 10.7144928 C39.26816147 11.71194016 39.25572906 12.70938751 39.24291992 13.73706055 C39.24186752 14.78939377 39.24081512 15.84172699 39.23973083 16.9259491 C39.23611908 19.21441722 39.22595034 21.5028821 39.21006012 23.79129791 C39.18711501 27.41457611 39.18592821 31.03724336 39.19134521 34.6605835 C39.20403853 44.96341032 39.18703944 55.26591602 39.13110352 65.56860352 C39.09844157 71.86815694 39.09969556 78.16695822 39.12212372 84.4665451 C39.12387214 86.86670261 39.11259905 89.26690649 39.08802032 91.66693878 C39.0544229 95.02840296 39.06386122 98.38725794 39.08276367 101.7487793 C39.05196968 103.23280495 39.05196968 103.23280495 39.02055359 104.74681091 C39.09734645 109.9168244 39.60219223 112.77572846 43.30511475 116.52996826 C44.48741603 117.54813136 45.69155434 118.54181098 46.92163086 119.50170898 C47.81366211 120.2609668 48.70569336 121.02022461 49.62475586 121.80249023 C50.46522461 122.46635742 51.30569336 123.13022461 52.17163086 123.81420898 C56.04243667 126.92883279 59.76788437 130.13504258 63.42163086 133.50170898 C67.79333549 137.52145434 72.29949972 141.30159093 76.91772461 145.03295898 C82.38465556 149.52593734 87.68838877 154.20916961 93.02514648 158.85522461 C96.00018275 161.43808307 98.99107146 164.00227813 101.98413086 166.56420898 C102.55752197 167.0551001 103.13091309 167.54599121 103.72167969 168.05175781 C104.87693604 169.04056102 106.03229061 170.02924947 107.18774414 171.01782227 C108.93174472 172.51036458 110.6749019 174.00388525 112.41772461 175.49780273 C112.9969165 175.99376953 113.5761084 176.48973633 114.17285156 177.00073242 C115.33115359 177.99490258 116.48727572 178.99161863 117.64111328 179.9909668 C120.68358388 182.61982667 123.76008453 185.18275696 126.91381836 187.67749023 C127.56350586 188.2027832 128.21319336 188.72807617 128.88256836 189.26928711 C130.12668908 190.27347026 131.38404035 191.2615534 132.65600586 192.23022461 C135.76427897 194.76912511 136.86039223 196.17865803 137.61694336 200.16967773 C136.92163086 203.50170898 136.92163086 203.50170898 135.01782227 205.17626953 C130.57589505 207.07780106 126.47550827 207.00820695 121.68725586 207.04077148 C120.69465759 207.05312836 119.70205933 207.06548523 118.67938232 207.07821655 C116.58148069 207.0977571 114.4834877 207.10901036 112.38549805 207.11254883 C109.19544115 207.12660408 106.00933509 207.19392439 102.82006836 207.26342773 C100.77581484 207.27583136 98.731539 207.28504827 96.68725586 207.29077148 C95.74319885 207.31748932 94.79914185 207.34420715 93.82647705 207.37173462 C86.29318213 207.2954602 82.33503533 204.56337821 76.92163086 199.50170898 C76.03733398 198.73084961 75.15303711 197.95999023 74.24194336 197.16577148 C73.51749023 196.49288086 72.79303711 195.81999023 72.04663086 195.12670898 C68.58840698 191.96826922 65.06379588 188.94621986 61.42163086 186.00170898 C56.95742629 182.39021765 52.69160972 178.61510204 48.44897461 174.74780273 C45.85200693 172.43983301 43.18759073 170.24615036 40.48413086 168.06420898 C35.71166883 164.20462295 31.19053977 160.12970908 26.67553711 155.97436523 C23.08955802 152.7546138 19.35461594 149.74265723 15.60522461 146.71655273 C12.97454529 144.54538072 10.44220661 142.29929542 7.92163086 140.00170898 C4.50423714 136.8871223 1.01640736 133.90984278 -2.57836914 131.00170898 C-7.04113128 127.39138456 -11.30556447 123.6174297 -15.54711914 119.75170898 C-18.16681724 117.42308845 -20.85352224 115.20607951 -23.57836914 113.00170898 C-28.04113128 109.39138456 -32.30556447 105.6174297 -36.54711914 101.75170898 C-39.16681724 99.42308845 -41.85352224 97.20607951 -44.57836914 95.00170898 C-48.17314564 92.09357519 -51.66097542 89.11629567 -55.07836914 86.00170898 C-59.28694511 82.17031671 -63.63338599 78.55925974 -68.05883789 74.98217773 C-72.26389304 71.52783101 -76.37765903 67.97017405 -80.48364258 64.39892578 C-83.58020348 61.66228335 -83.58020348 61.66228335 -87.07836914 59.50170898 C-87.30911133 60.19006836 -87.53985352 60.87842773 -87.77758789 61.58764648 C-89.36444982 65.14259843 -91.54578371 68.05107891 -93.89086914 71.12670898 C-98.15437331 76.82929608 -102.26573569 82.61145689 -106.26586914 88.50170898 C-116.31275001 103.27831496 -126.53558784 117.93209851 -136.86083984 132.51538086 C-140.50378673 137.66824554 -144.08896352 142.85860986 -147.65600586 148.06420898 C-151.75264954 154.03878314 -155.88030992 159.99151575 -160.01586914 165.93920898 C-160.63558594 166.83140137 -161.25530273 167.72359375 -161.89379883 168.64282227 C-163.19824413 170.51766897 -164.53413339 172.37090722 -165.89550781 174.20483398 C-167.63976213 176.83926081 -168.83147 179.11353611 -170.08349609 181.97045898 C-172.58519403 187.12147265 -175.11494887 191.43006288 -180.07836914 194.50170898 C-190.0564667 197.14206511 -200.87156604 196.18084571 -211.0894165 195.72454834 C-217.13637193 195.46748017 -223.18613786 195.34335882 -229.23747826 195.24734116 C-231.33815326 195.19798473 -233.43188761 195.09855717 -235.53034973 194.99221802 C-242.30594215 194.64287373 -242.30594215 194.64287373 -248.46316528 196.98965454 C-250.23438181 198.73676239 -251.66108005 200.46288477 -253.07836914 202.50170898 C-254.19985352 203.80495117 -254.19985352 203.80495117 -255.34399414 205.13452148 C-255.99883789 205.95694336 -256.65368164 206.77936523 -257.32836914 207.62670898 C-261.14148912 212.36068447 -265.03140462 217.01608822 -268.97607422 221.64013672 C-271.23621821 224.29718792 -273.46750709 226.96911397 -275.63696289 229.70092773 C-276.42200195 230.68706055 -277.20704102 231.67319336 -278.01586914 232.68920898 C-278.70551758 233.56963867 -279.39516602 234.45006836 -280.10571289 235.35717773 C-282.62058695 238.09116953 -284.63573302 239.34244742 -288.35817814 239.75339127 C-289.19864406 239.75414532 -290.03910997 239.75489937 -290.90504456 239.75567627 C-291.87383545 239.76131592 -292.84262634 239.76695557 -293.84077454 239.77276611 C-294.89701523 239.76871765 -295.95325592 239.76466919 -297.04150391 239.76049805 C-298.15892975 239.76400269 -299.27635559 239.76750732 -300.42764282 239.77111816 C-304.12508334 239.77992827 -307.82233289 239.77408914 -311.51977539 239.76733398 C-314.08520037 239.76868074 -316.65062509 239.77062136 -319.21604919 239.77313232 C-324.59360416 239.77608254 -329.97108717 239.77197925 -335.34863281 239.76245117 C-341.56643688 239.75156156 -347.78410984 239.75509687 -354.00191075 239.76610398 C-359.98414585 239.77627026 -365.96631677 239.77519862 -371.94856071 239.76934052 C-374.49434363 239.76800372 -377.04012987 239.76965278 -379.58590889 239.77429962 C-383.13890661 239.77936183 -386.69165018 239.77165893 -390.24462891 239.76049805 C-391.30289383 239.76454651 -392.36115875 239.76859497 -393.45149231 239.77276611 C-394.41746338 239.76712646 -395.38343445 239.76148682 -396.37867737 239.75567627 C-397.21876626 239.75492222 -398.05885515 239.75416817 -398.92440128 239.75339127 C-401.07836914 239.50170898 -401.07836914 239.50170898 -404.07836914 237.50170898 C-404.53540039 235.21655273 -404.53540039 235.21655273 -404.07836914 232.50170898 C-402.27758789 229.88061523 -402.27758789 229.88061523 -399.76586914 227.06420898 C-398.83936603 226.0034734 -397.91496417 224.94089963 -396.99243164 223.87670898 C-396.51064453 223.32499023 -396.02885742 222.77327148 -395.5324707 222.20483398 C-393.13807445 219.4003833 -390.89562215 216.48117166 -388.64086914 213.56420898 C-385.09935637 209.00950098 -381.46607943 204.5625853 -377.70336914 200.18920898 C-372.31238334 193.90634283 -367.31110899 187.3524077 -362.31274414 180.75561523 C-359.19219551 176.63848609 -356.02217837 172.56218267 -352.82836914 168.50170898 C-352.129375 167.61140991 -352.129375 167.61140991 -351.41625977 166.703125 C-348.21182309 162.63516293 -348.21182309 162.63516293 -347.07836914 161.50170898 C-344.96335771 161.4035168 -342.84501172 161.3770635 -340.72772217 161.37713623 C-340.05660943 161.37572608 -339.3854967 161.37431593 -338.69404721 161.37286305 C-336.4285792 161.36919157 -334.16317307 161.3725545 -331.89770508 161.37573242 C-330.28007457 161.37433852 -328.66244444 161.37243978 -327.04481506 161.37007141 C-323.55258643 161.36556494 -320.06036958 161.36371812 -316.56813812 161.36360931 C-311.04704288 161.36247177 -305.52601494 161.34965369 -300.00494385 161.33404541 C-299.07424285 161.33147256 -298.14354185 161.3288997 -297.18463778 161.32624888 C-295.28101598 161.32098199 -293.37739423 161.31569651 -291.47377253 161.31039286 C-278.61458489 161.27524798 -265.75547984 161.24873093 -252.89624023 161.2512207 C-244.23025262 161.25280842 -235.5644933 161.23679221 -226.89857888 161.20051408 C-222.31019575 161.18203409 -217.72219383 161.17272858 -213.13378143 161.18498993 C-208.81621397 161.19641486 -204.49932894 161.18475105 -200.18185234 161.15535545 C-198.59720787 161.14870669 -197.01250108 161.15059577 -195.42788124 161.16165352 C-193.26342002 161.17550398 -191.10126948 161.15866041 -188.93695068 161.13421631 C-187.72609173 161.13274975 -186.51523277 161.13128319 -185.26768112 161.12977219 C-180.40492747 160.17216232 -178.33982771 157.17649359 -175.46362305 153.35787964 C-174.99875488 152.64463531 -174.53388672 151.93139099 -174.05493164 151.1965332 C-173.51666748 150.37732391 -172.97840332 149.55811462 -172.42382812 148.71408081 C-171.57220093 147.39852707 -171.57220093 147.39852707 -170.70336914 146.05639648 C-169.79470093 144.66966232 -169.79470093 144.66966232 -168.86767578 143.25491333 C-166.93222602 140.29918004 -165.00490031 137.33826141 -163.07836914 134.37670898 C-160.56039996 130.51806168 -158.03898736 126.66167858 -155.51586914 122.80639648 C-154.89470215 121.85645813 -154.27353516 120.90651978 -153.63354492 119.92779541 C-148.00884857 111.3482258 -142.22096314 102.88603006 -136.40454102 94.43585205 C-133.58349345 90.32152141 -130.83107986 86.16189765 -128.07836914 82.00170898 C-118.94460956 68.2492936 -109.69719557 54.57354176 -100.45727539 40.89233398 C-93.63157463 30.78370936 -86.828032 20.66128671 -80.07836914 10.50170898 C-74.32473823 14.61051973 -69.13314463 19.13003768 -63.93774414 23.92358398 C-60.3204963 27.18503696 -56.55101162 30.22875357 -52.76196289 33.28686523 C-50.13128357 35.45803725 -47.5989449 37.70412255 -45.07836914 40.00170898 C-40.77979435 43.9193974 -36.32227109 47.5913804 -31.80102539 51.24780273 C-28.38160251 54.07851579 -25.10958201 57.04960735 -21.85571289 60.06811523 C-19.25890014 62.34352219 -16.60407406 64.50177802 -13.90478516 66.65380859 C-13.00172134 67.37434921 -12.09865753 68.09488983 -11.16822815 68.83726501 C-10.47857468 69.38653152 -9.7889212 69.93579803 -9.07836914 70.50170898 C-9.07472351 69.6837384 -9.07107788 68.86576782 -9.06732178 68.02301025 C-9.02944822 60.3127297 -8.97260353 52.60293267 -8.8944664 44.89296341 C-8.85496405 40.92919514 -8.82278939 36.96564992 -8.80737305 33.00170898 C-8.79222417 29.1759208 -8.75781139 25.35074573 -8.71006012 21.52523041 C-8.69522781 20.0660612 -8.68732706 18.60680447 -8.68648529 17.14756012 C-8.68411919 15.1025107 -8.65707432 13.05916069 -8.62426758 11.0144043 C-8.61538513 9.85080383 -8.60650269 8.68720337 -8.59735107 7.48834229 C-7.73305113 2.51447554 -5.0640015 0.00121484 0 0 Z " fill="#015D37" transform="translate(673.078369140625,436.498291015625)"/>
<path d="M0 0 C16.54992529 14.44633602 30.0323489 32.77042396 33.48828125 54.9140625 C32.40944168 54.91770813 31.33060211 54.92135376 30.21907043 54.92510986 C20.05159163 54.96205246 9.8844159 55.01981713 -0.28283215 55.09796524 C-5.50993798 55.137473 -10.73687451 55.16964534 -15.96411133 55.18505859 C-21.00879766 55.20020338 -26.05301865 55.23461033 -31.09749794 55.28237152 C-33.02196521 55.29720778 -34.94649891 55.3051048 -36.87102318 55.30594635 C-39.5671079 55.30831101 -42.26190141 55.33534968 -44.95776367 55.36816406 C-46.15107048 55.36061852 -46.15107048 55.36061852 -47.3684845 55.35292053 C-52.38795182 55.44743191 -54.98920067 56.32311328 -58.51171875 59.9140625 C-60.53621098 62.52698478 -60.53621098 62.52698478 -62.34765625 65.4453125 C-63.37971191 67.04052734 -63.37971191 67.04052734 -64.43261719 68.66796875 C-65.1187207 69.73917969 -65.80482422 70.81039062 -66.51171875 71.9140625 C-67.77109866 73.82271986 -69.0340228 75.7290442 -70.30078125 77.6328125 C-71.23736572 79.04542358 -71.23736572 79.04542358 -72.19287109 80.48657227 C-78.55853934 90.07345093 -85.02442285 99.57452339 -91.65185547 108.98217773 C-96.17832144 115.41415028 -100.56973051 121.92250936 -104.90332031 128.48535156 C-108.21618213 133.48783326 -111.55035824 138.47617914 -114.88000488 143.46749878 C-116.89585432 146.48965752 -118.91079053 149.51242494 -120.92578125 152.53515625 C-122.71875 155.22460938 -122.71875 155.22460938 -124.51171875 157.9140625 C-130.53296034 156.65422618 -134.15727675 152.03793647 -138.51171875 147.9140625 C-139.20910156 147.29273438 -139.90648437 146.67140625 -140.625 146.03125 C-156.79968137 131.0558937 -166.49001028 106.27844304 -167.63623047 84.55419922 C-168.55064366 55.61671342 -159.97883237 29.53819702 -140.51171875 7.9140625 C-103.20437703 -31.14891883 -41.37218006 -34.3588556 0 0 Z " fill="#FECA37" transform="translate(480.51171875,372.0859375)"/>
<path d="M0 0 C2.41294371 0.00188439 4.82644989 0.06882452 7.23632812 0.19042969 C9.15040466 0.21589874 9.15040466 0.21589874 11.10314941 0.24188232 C14.47419207 0.29749322 17.835219 0.40488952 21.20349121 0.53833008 C24.64845806 0.66179391 28.09446743 0.71603842 31.54101562 0.77636719 C38.2859404 0.90835876 45.02618206 1.10888459 51.76757812 1.36230469 C50.51718256 4.70930906 49.10411029 7.61152054 47.13232422 10.58813477 C46.60293243 11.39207672 46.07354065 12.19601868 45.52810669 13.02432251 C44.95486664 13.88480194 44.38162659 14.74528137 43.79101562 15.63183594 C42.89453812 16.98902237 42.89453812 16.98902237 41.97994995 18.37362671 C40.03855322 21.31028791 38.09071661 24.24261247 36.14257812 27.17480469 C34.80467214 29.19516819 33.4671078 31.21575797 32.12988281 33.23657227 C28.90410274 38.10887505 25.67305427 42.97765268 22.4395752 47.84484863 C20.99398369 50.0214153 19.54966523 52.19881357 18.10644531 54.37695312 C13.68239483 61.05375175 9.23778476 67.71631337 4.76757812 74.36230469 C4.40621765 74.90004517 4.04485718 75.43778564 3.67254639 75.99182129 C1.32117801 79.49024407 -1.03491964 82.98541424 -3.39685059 86.47671509 C-4.51349565 88.12832278 -5.62739364 89.78178672 -6.74121094 91.43530273 C-7.41506836 92.42828369 -8.08892578 93.42126465 -8.78320312 94.44433594 C-9.37786377 95.32323486 -9.97252441 96.20213379 -10.58520508 97.10766602 C-13.31805231 100.84826839 -13.31805231 100.84826839 -15.23242188 102.36230469 C-17.75712585 102.72306824 -17.75712585 102.72306824 -20.80541992 102.70288086 C-22.51685432 102.70254097 -22.51685432 102.70254097 -24.26286316 102.70219421 C-26.1098455 102.67896843 -26.1098455 102.67896843 -27.99414062 102.65527344 C-29.8855352 102.64890617 -29.8855352 102.64890617 -31.81513977 102.64241028 C-35.16417131 102.62845096 -38.51258946 102.60150573 -41.8614502 102.56829834 C-45.27997541 102.53758574 -48.69856403 102.52390244 -52.1171875 102.50878906 C-58.82243536 102.47567692 -65.5273932 102.42544486 -72.23242188 102.36230469 C-69.52730559 97.3995247 -66.79689992 92.5192472 -63.63085938 87.83105469 C-62.64666016 86.36539063 -62.64666016 86.36539063 -61.64257812 84.87011719 C-60.97097656 83.87753906 -60.299375 82.88496094 -59.60742188 81.86230469 C-58.28057124 79.89445067 -56.95508338 77.92567719 -55.63085938 75.95605469 C-54.90906494 74.93568115 -54.18727051 73.91530762 -53.44360352 72.86401367 C-51.7068909 70.29058277 -50.48996409 67.71212111 -49.30053711 64.84692383 C-47.04719475 59.8780142 -44.80424451 55.53197304 -40.23242188 52.36230469 C-31.36693414 49.61175198 -21.76268619 50.3754585 -12.59051514 50.73144531 C-9.1652181 50.84591145 -5.73942697 50.86330866 -2.3125 50.88769531 C4.39022022 50.94238659 11.06101086 51.15571941 17.76757812 51.36230469 C-0.38242187 51.03230469 -18.53242188 50.70230469 -37.23242188 50.36230469 C-35.45009698 45.90649245 -33.35664721 42.24776928 -30.72460938 38.29589844 C-30.05813889 37.28379051 -30.05813889 37.28379051 -29.37820435 36.25123596 C-27.95880221 34.09795727 -26.53320431 31.9488626 -25.10742188 29.79980469 C-24.17212028 28.38275471 -23.23722075 26.96543927 -22.30273438 25.54785156 C-17.28132483 17.93779527 -17.28132483 17.93779527 -15.6963501 15.63821411 C-14.12321098 13.26681578 -14.12321098 13.26681578 -12.59417725 10.23361206 C-9.24961328 4.27640724 -7.09700789 0.69296241 0 0 Z " fill="#265074" transform="translate(502.232421875,483.6376953125)"/>
<path d="M0 0 C2.41809865 0.00173094 4.83665921 0.06329523 7.25219727 0.17456055 C9.16839622 0.19790718 9.16839622 0.19790718 11.12330627 0.22172546 C14.50187626 0.27274581 17.87209524 0.37126221 21.24835205 0.49346924 C24.70007549 0.60652873 28.15266697 0.656345 31.60571289 0.71166992 C38.36646466 0.83274866 45.12330262 1.01663945 51.88110352 1.2487793 C51.10651489 5.86218818 49.34437351 8.96078509 46.69360352 12.7487793 C45.79460075 14.06349712 44.89620041 15.378627 43.99829102 16.6940918 C43.50554687 17.41113281 43.01280273 18.12817383 42.50512695 18.86694336 C39.39872645 23.4228729 36.36653132 28.02862245 33.31860352 32.6237793 C32.11028977 34.44496938 30.9007523 36.26534846 29.68969727 38.0847168 C29.17205811 38.86379395 28.65441895 39.64287109 28.12109375 40.44555664 C26.88110352 42.2487793 26.88110352 42.2487793 25.88110352 43.2487793 C24.07055326 43.34253983 22.2563315 43.36622039 20.44335938 43.36230469 C18.70166725 43.36219139 18.70166725 43.36219139 16.92478943 43.36207581 C15.02951256 43.35433388 15.02951256 43.35433388 13.09594727 43.34643555 C11.80999161 43.3450206 10.52403595 43.34360565 9.19911194 43.34214783 C5.77466909 43.33832348 2.35026843 43.32849392 -1.07415771 43.31744385 C-4.56627837 43.30722794 -8.05840583 43.30264982 -11.55053711 43.29760742 C-18.40667427 43.28687156 -25.26278335 43.26979614 -32.11889648 43.2487793 C-29.8697146 38.60100373 -27.54519575 34.13806076 -24.69311523 29.82299805 C-24.06083008 28.86071289 -23.42854492 27.89842773 -22.77709961 26.90698242 C-21.80160156 25.43648438 -21.80160156 25.43648438 -20.80639648 23.9362793 C-19.51801769 21.9822598 -18.23025524 20.02783378 -16.94311523 18.07299805 C-16.37681396 17.21794678 -15.8105127 16.36289551 -15.22705078 15.48193359 C-13.11640554 12.39961095 -13.11640554 12.39961095 -11.79151917 9.47346497 C-8.75992984 3.66098881 -6.78466095 0.60058661 0 0 Z " fill="#254F73" transform="translate(530.118896484375,439.751220703125)"/>
<path d="M0 0 C2.30104387 0.10047519 4.6025111 0.19170375 6.90429688 0.2734375 C12.50803272 0.49241092 18.09577452 0.82549111 23.6875 1.25 C20.74896791 6.65505469 17.70845251 11.9127991 14.32421875 17.05078125 C13.92854202 17.65327194 13.5328653 18.25576263 13.12519836 18.87651062 C11.87809967 20.77381328 10.62661913 22.66817724 9.375 24.5625 C8.14036863 26.43934371 6.90658767 28.31670506 5.67617798 30.19631958 C4.85868209 31.43190651 4.02966342 32.65994693 3.18930054 33.88009644 C1.16989415 36.83388255 -0.41968227 39.50025191 -1.83935547 42.81494141 C-3.63903033 46.6601918 -4.88372117 48.70563176 -8.3125 51.25 C-16.25404185 53.23187151 -24.71846972 52.3708792 -32.8125 52 C-35.08840166 51.93976697 -37.36445559 51.88502108 -39.640625 51.8359375 C-45.20125213 51.70409312 -50.75617049 51.50371105 -56.3125 51.25 C-55.49171133 47.54620493 -54.06089416 45.05243209 -51.953125 41.875 C-50.89544922 40.27011719 -50.89544922 40.27011719 -49.81640625 38.6328125 C-49.06532874 37.50505873 -48.31402735 36.37745404 -47.5625 35.25 C-46.12973876 33.08364382 -44.69746244 30.91696687 -43.265625 28.75 C-42.87694748 28.19028503 -42.48826996 27.63057007 -42.08781433 27.05389404 C-39.63199038 23.47121976 -37.60702307 19.87559427 -35.72387695 15.95800781 C-27.10743035 -0.95797022 -17.95612887 -1.36803684 0 0 Z " fill="#254F73" transform="translate(436.3125,534.75)"/>
<path d="M0 0 C2.31488828 0.07531647 4.63001155 0.14374457 6.9453125 0.20507812 C12.59370265 0.36965224 18.23325544 0.61988719 23.875 0.9375 C21.61008169 5.63433923 19.25837503 10.11000812 16.3359375 14.44140625 C15.67730713 15.42294678 15.01867676 16.4044873 14.34008789 17.41577148 C13.30549438 18.9424646 13.30549438 18.9424646 12.25 20.5 C10.81897373 22.62757949 9.38798414 24.75518365 7.95703125 26.8828125 C6.91409912 28.4282373 6.91409912 28.4282373 5.85009766 30.00488281 C2.77844554 34.56565973 -0.25835869 39.14946562 -3.29345703 43.73461914 C-6.01456524 47.82706524 -6.01456524 47.82706524 -7.125 48.9375 C-8.6598297 49.03069449 -10.19892082 49.054958 -11.73657227 49.05102539 C-12.71751358 49.05094986 -13.6984549 49.05087433 -14.7091217 49.05079651 C-15.7757756 49.04563522 -16.8424295 49.04047394 -17.94140625 49.03515625 C-19.57069313 49.03303383 -19.57069313 49.03303383 -21.2328949 49.03086853 C-24.71779075 49.02525048 -28.20262342 49.01269492 -31.6875 49 C-34.04361887 48.99498733 -36.39973874 48.99042402 -38.75585938 48.98632812 C-44.54559464 48.97527519 -50.33529281 48.95851951 -56.125 48.9375 C-55.69872314 48.2681543 -55.27244629 47.59880859 -54.83325195 46.90917969 C-51.794006 42.13530315 -48.75756681 37.35971525 -45.73046875 32.578125 C-44.59114583 30.78125 -43.45182292 28.984375 -42.3125 27.1875 C-41.76013672 26.31351562 -41.20777344 25.43953125 -40.63867188 24.5390625 C-39.46840119 22.69532162 -38.27156006 20.86823685 -37.05175781 19.05688477 C-35.56847804 16.65548262 -34.45271577 14.48498229 -33.33105469 11.92553711 C-26.2828725 -2.80202876 -14.70264918 -0.83062863 0 0 Z " fill="#254F73" transform="translate(469.125,485.0625)"/>
<path d="M0 0 C0.86585724 0.04129028 1.73171448 0.08258057 2.62380981 0.12512207 C3.52535797 0.13644165 4.42690613 0.14776123 5.35577393 0.15942383 C8.22076667 0.20402676 11.08065675 0.30434607 13.94412231 0.40637207 C15.89196642 0.44652045 17.83988941 0.48301886 19.78787231 0.51574707 C24.55023951 0.60370813 29.30881757 0.74163372 34.06912231 0.90637207 C29.7109833 9.1919611 24.94038593 17.02235957 19.53713989 24.66687012 C16.44188581 29.09679306 13.81907294 33.18589213 11.93240356 38.26574707 C9.63386917 43.82991482 7.6603756 48.14706452 2.06912231 50.90637207 C-11.11647598 53.69846851 -25.61350484 51.97096118 -38.93087769 50.90637207 C-38.21925174 45.76200229 -36.9624536 43.07346898 -33.80587769 38.90637207 C-32.89945647 37.68707622 -31.99601841 36.46555927 -31.09494019 35.24230957 C-30.5951062 34.56522949 -30.09527222 33.88814941 -29.58029175 33.19055176 C-25.68358627 27.79422605 -22.00839196 22.2399168 -18.28585815 16.72277832 C-17.67887085 15.82687988 -17.07188354 14.93098145 -16.44650269 14.00793457 C-15.91315308 13.21725586 -15.37980347 12.42657715 -14.83029175 11.61193848 C-14.20348511 10.71910156 -13.57667847 9.82626465 -12.93087769 8.90637207 C-12.3275209 7.88123505 -12.3275209 7.88123505 -11.7119751 6.83538818 C-8.40837696 1.65981096 -6.18145867 -0.00455283 0 0 Z " fill="#254F73" transform="translate(374.9308776855469,535.0936279296875)"/>
<path d="M0 0 C1.26907951 0.01332367 1.26907951 0.01332367 2.563797 0.0269165 C3.5245665 0.02721863 4.485336 0.02752075 5.47521973 0.02783203 C6.50967728 0.04847717 7.54413483 0.06912231 8.60993958 0.09039307 C10.20168755 0.09888275 10.20168755 0.09888275 11.82559204 0.10754395 C15.21900817 0.12995664 18.61137318 0.18016358 22.00447083 0.23101807 C24.30328372 0.25107667 26.60211313 0.26932855 28.9009552 0.28570557 C34.53998646 0.32983736 40.17840356 0.39679835 45.81697083 0.48101807 C45.19832511 1.74332978 44.57672964 3.00419606 43.95393372 4.26446533 C43.60810745 4.96676773 43.26228119 5.66907013 42.90597534 6.39265442 C41.25250138 9.56349058 39.27934969 12.47616692 37.25447083 15.41851807 C36.37696526 16.71197325 35.50071462 18.00628048 34.62556458 19.30133057 C34.17036438 19.97454346 33.71516418 20.64775635 33.24617004 21.34136963 C30.22950497 25.85760686 27.31571523 30.44195538 24.39680481 35.02178955 C23.95795959 35.70571777 23.51911438 36.389646 23.06697083 37.09429932 C22.68025208 37.70056152 22.29353333 38.30682373 21.89509583 38.93145752 C20.81697083 40.48101807 20.81697083 40.48101807 18.81697083 42.48101807 C16.75419617 42.7215271 16.75419617 42.7215271 14.18367004 42.70806885 C13.22282501 42.70791779 12.26197998 42.70776672 11.27201843 42.70761108 C10.2323996 42.69728851 9.19278076 42.68696594 8.12165833 42.67633057 C7.05907806 42.67350067 5.9964978 42.67067078 4.90171814 42.66775513 C1.49835584 42.65653446 -1.90474603 42.63142643 -5.30802917 42.60601807 C-7.6114108 42.59599071 -9.91479654 42.58686443 -12.21818542 42.57867432 C-17.87322263 42.556589 -23.5281073 42.52309295 -29.18302917 42.48101807 C-28.25273302 40.74227053 -27.31832841 39.00572087 -26.38224792 37.27008057 C-25.86235291 36.30280029 -25.34245789 35.33552002 -24.80680847 34.33892822 C-22.83248033 30.86403945 -20.58405493 27.67231777 -18.24943542 24.43414307 C-15.0309267 19.83453513 -12.02670791 15.09813012 -9.00260925 10.36920166 C-8.55167908 9.6661792 -8.1007489 8.96315674 -7.63615417 8.23883057 C-7.235578 7.61121826 -6.83500183 6.98360596 -6.42228699 6.3369751 C-5.80885437 5.41827637 -5.80885437 5.41827637 -5.18302917 4.48101807 C-4.76037277 3.7921048 -4.33771637 3.10319153 -3.9022522 2.3934021 C-2.18302917 0.48101807 -2.18302917 0.48101807 0 0 Z " fill="#254F73" transform="translate(476.1830291748047,440.51898193359375)"/>
<path d="M0 0 C1.94782484 0.04516648 3.8957495 0.08622731 5.84375 0.12304688 C10.60663458 0.22201382 15.36472529 0.37717052 20.125 0.5625 C16.01344634 8.3326623 11.22031286 15.59371179 6.3125 22.875 C5.14892178 24.60905984 3.98633819 26.34374251 2.82693481 28.08059692 C2.054622 29.22689485 1.27257059 30.36669151 0.48092651 31.49972534 C-1.47315288 34.318923 -3.04422416 36.9286674 -4.49365234 40.06494141 C-6.31300604 43.72581625 -7.68448554 45.98285747 -10.875 48.5625 C-17.64424002 50.49783297 -24.9358417 49.68669914 -31.875 49.3125 C-33.81363725 49.25225162 -35.75245388 49.19750834 -37.69140625 49.1484375 C-42.42372359 49.01672023 -47.1473844 48.81005237 -51.875 48.5625 C-50.2684475 43.82511261 -47.66741458 40.03922773 -44.859375 35.953125 C-44.3659259 35.22687927 -43.87247681 34.50063354 -43.36407471 33.75238037 C-41.78883434 31.43601852 -40.20710522 29.12417706 -38.625 26.8125 C-37.06226025 24.51932304 -35.50081784 22.22530307 -33.94271851 19.92897034 C-32.93311165 18.45135039 -31.91380112 16.9803117 -30.88467407 15.51622009 C-28.80871265 12.5458484 -26.99206409 9.83051739 -25.53662109 6.49829102 C-21.26131402 -3.21249036 -8.94601648 -0.35859243 0 0 Z " fill="#254F73" transform="translate(421.875,485.4375)"/>
<path d="M0 0 C1.63984529 0.00031732 3.27971127 0.01165397 4.91943359 0.03173828 C6.21365738 0.03598312 6.21365738 0.03598312 7.5340271 0.04031372 C10.29544829 0.05152746 13.05654759 0.07663394 15.81787109 0.10205078 C17.68765808 0.11207905 19.55745015 0.12120517 21.42724609 0.12939453 C26.01591218 0.15147066 30.60433702 0.18600844 35.19287109 0.22705078 C33.83714312 3.92242279 32.16055275 7.04026279 29.99755859 10.32470703 C29.36744873 11.28610596 28.73733887 12.24750488 28.08813477 13.23803711 C27.08810425 14.74853638 27.08810425 14.74853638 26.06787109 16.28955078 C25.39151611 17.31781982 24.71516113 18.34608887 24.01831055 19.40551758 C22.080592 22.34875493 20.13699915 25.28804522 18.19287109 28.22705078 C17.29267083 29.59653974 16.392854 30.96628093 15.49365234 32.33642578 C10.47176894 39.94815293 10.47176894 39.94815293 8.19287109 42.22705078 C5.17978158 42.40251561 2.25976656 42.45832523 -0.75244141 42.42236328 C-1.63745331 42.41953339 -2.52246521 42.41670349 -3.43429565 42.41378784 C-6.26704303 42.40257318 -9.09947674 42.37746649 -11.93212891 42.35205078 C-13.8500931 42.34202263 -15.76806223 42.3328965 -17.68603516 42.32470703 C-22.39318767 42.30262967 -27.10010507 42.26809123 -31.80712891 42.22705078 C-28.41125082 35.83374683 -24.63487401 29.84863752 -20.49462891 23.91455078 C-19.34556477 22.25352577 -18.1971269 20.59206734 -17.04931641 18.93017578 C-16.49598633 18.1303125 -15.94265625 17.33044922 -15.37255859 16.50634766 C-12.62240339 12.50206677 -9.95698913 8.4430044 -7.29541016 4.37939453 C-4.45072968 0.26543405 -4.45072968 0.26543405 0 0 Z " fill="#254E72" transform="translate(435.80712890625,440.77294921875)"/>
<path d="M0 0 C0.71353638 0.00202423 1.42707275 0.00404846 2.16223145 0.00613403 C2.89091431 0.00517731 3.61959717 0.00422058 4.37036133 0.00323486 C5.91377855 0.00255318 7.45719861 0.00440666 9.00061035 0.00857544 C11.37095544 0.01392391 13.74111104 0.00863011 16.1114502 0.00222778 C17.60754437 0.00288857 19.10363842 0.00416973 20.59973145 0.00613403 C21.31326782 0.0041098 22.0268042 0.00208557 22.76196289 0 C27.76602953 0.02399462 27.76602953 0.02399462 28.88098145 1.13894653 C28.98180908 3.57555099 29.02070748 5.98319354 29.01379395 8.42019653 C29.01475067 9.14887939 29.0157074 9.87756226 29.01669312 10.62832642 C29.0173748 12.17174363 29.01552132 13.7151637 29.01135254 15.25857544 C29.00600407 17.62892053 29.01129787 19.99907613 29.0177002 22.36941528 C29.01703941 23.86550945 29.01575824 25.36160351 29.01379395 26.85769653 C29.01581818 27.57123291 29.01784241 28.28476929 29.01992798 29.01992798 C28.99593336 34.02399462 28.99593336 34.02399462 27.88098145 35.13894653 C25.52869826 35.25211937 23.20686197 35.3031119 20.8536377 35.30691528 C19.79746498 35.31190788 19.79746498 35.31190788 18.71995544 35.31700134 C17.22782038 35.32207308 15.73567394 35.32440959 14.24353027 35.32424927 C11.95647537 35.32643412 9.66990392 35.34458202 7.38293457 35.36355591 C5.9356706 35.36649007 4.48840433 35.36847471 3.0411377 35.36941528 C2.35463638 35.3766008 1.66813507 35.38378632 0.96083069 35.39118958 C-3.89019486 35.36777022 -3.89019486 35.36777022 -6.11901855 33.13894653 C-6.30615842 30.71327534 -6.37487133 28.40396986 -6.3494873 25.97879028 C-6.34902908 25.27371841 -6.34857086 24.56864655 -6.34809875 23.84220886 C-6.34507718 22.35183021 -6.33719366 20.86145469 -6.3248291 19.37112427 C-6.30656311 17.0820302 -6.30431947 14.79334026 -6.30456543 12.50418091 C-6.29965061 11.05821385 -6.29382245 9.61224954 -6.2869873 8.16629028 C-6.28587448 7.47776474 -6.28476166 6.7892392 -6.28361511 6.07984924 C-6.22470027 0.22393723 -5.83650195 0.02798617 0 0 Z " fill="#015C35" transform="translate(565.1190185546875,629.8610534667969)"/>
<path d="M0 0 C0.68146088 0.00187317 1.36292175 0.00374634 2.06503296 0.00567627 C3.50238961 0.01238894 4.93972824 0.02628807 6.37695312 0.046875 C8.58480673 0.078109 10.79194709 0.087854 13 0.09375 C23.79747322 0.16466072 23.79747322 0.16466072 24.9609375 1.328125 C25.06176514 3.76472946 25.10066353 6.17237201 25.09375 8.609375 C25.09470673 9.33805786 25.09566345 10.06674072 25.09664917 10.81750488 C25.09733085 12.3609221 25.09547738 13.90434217 25.09130859 15.44775391 C25.08596012 17.818099 25.09125392 20.18825459 25.09765625 22.55859375 C25.09699547 24.05468792 25.0957143 25.55078197 25.09375 27.046875 C25.09577423 27.76041138 25.09779846 28.47394775 25.09988403 29.20910645 C25.07588941 34.21317309 25.07588941 34.21317309 23.9609375 35.328125 C21.52433304 35.42895264 19.11669049 35.46785103 16.6796875 35.4609375 C15.95100464 35.46189423 15.22232178 35.46285095 14.47155762 35.46383667 C12.9281404 35.46451835 11.38472033 35.46266488 9.84130859 35.45849609 C7.4709635 35.45314762 5.10080791 35.45844142 2.73046875 35.46484375 C1.23437458 35.46418297 -0.26171947 35.4629018 -1.7578125 35.4609375 C-2.82811707 35.46397385 -2.82811707 35.46397385 -3.92004395 35.46707153 C-8.92411059 35.44307691 -8.92411059 35.44307691 -10.0390625 34.328125 C-10.28152542 29.94689353 -10.26758205 25.56005183 -10.27929688 21.17285156 C-10.28899259 18.96901571 -10.31999772 16.76611631 -10.3515625 14.5625 C-10.35809339 13.16406805 -10.36334353 11.76562942 -10.3671875 10.3671875 C-10.3765332 9.09053223 -10.38587891 7.81387695 -10.39550781 6.49853516 C-10.0390625 3.328125 -10.0390625 3.328125 -8.95849609 1.40869141 C-5.98486182 -0.26534895 -3.38714948 -0.02479549 0 0 Z " fill="#015C35" transform="translate(569.0390625,586.671875)"/>
<path d="M0 0 C1.05617271 -0.0049926 1.05617271 -0.0049926 2.13368225 -0.01008606 C3.62581731 -0.0151578 5.11796375 -0.01749431 6.61010742 -0.01733398 C8.89716232 -0.01951884 11.18373378 -0.03766674 13.47070312 -0.05664062 C14.91796709 -0.05957479 16.36523336 -0.06155943 17.8125 -0.0625 C18.49900131 -0.06968552 19.18550262 -0.07687103 19.89280701 -0.08427429 C24.74383256 -0.06085494 24.74383256 -0.06085494 26.97265625 2.16796875 C27.37172015 6.58640424 27.30168982 11.01916714 27.28833008 15.45361328 C27.28516813 17.65968109 27.30863201 19.86441044 27.33398438 22.0703125 C27.33625713 23.46744622 27.33696097 24.86458356 27.3359375 26.26171875 C27.33891846 27.53724609 27.34189941 28.81277344 27.3449707 30.12695312 C27.22210693 31.13048828 27.09924316 32.13402344 26.97265625 33.16796875 C23.26140122 35.64213877 21.3603683 35.41268498 16.93359375 35.3984375 C16.25213287 35.39797928 15.570672 35.39752106 14.86856079 35.39704895 C13.43123631 35.39403243 11.99391492 35.38616405 10.55664062 35.3737793 C8.34884154 35.35547858 6.1414609 35.35326998 3.93359375 35.35351562 C-6.87986315 35.31544935 -6.87986315 35.31544935 -8.02734375 34.16796875 C-8.12817139 31.73136429 -8.16706978 29.32372174 -8.16015625 26.88671875 C-8.16111298 26.15803589 -8.1620697 25.42935303 -8.16305542 24.67858887 C-8.1637371 23.13517165 -8.16188363 21.59175158 -8.15771484 20.04833984 C-8.15236637 17.67799475 -8.15766017 15.30783916 -8.1640625 12.9375 C-8.16340172 11.44140583 -8.16212055 9.94531178 -8.16015625 8.44921875 C-8.16218048 7.73568237 -8.16420471 7.022146 -8.16629028 6.2869873 C-8.13286563 -0.68370788 -6.32137248 0.01021686 0 0 Z " fill="#015C35" transform="translate(609.02734375,629.83203125)"/>
<path d="M0 0 C2.20383585 -0.00969571 4.40673525 -0.04070084 6.61035156 -0.07226562 C8.00878351 -0.07879652 9.40722215 -0.08404665 10.80566406 -0.08789062 C12.08231934 -0.09723633 13.35897461 -0.10658203 14.67431641 -0.11621094 C17.84472656 0.24023438 17.84472656 0.24023438 19.76416016 1.32080078 C21.43820051 4.29443505 21.19764705 6.8921474 21.17285156 10.27929688 C21.17097839 10.96075775 21.16910522 11.64221863 21.16717529 12.34432983 C21.16046262 13.78168649 21.14656349 15.21902511 21.12597656 16.65625 C21.09474256 18.8641036 21.08499756 21.07124397 21.07910156 23.27929688 C21.00819084 34.0767701 21.00819084 34.0767701 19.84472656 35.24023438 C17.40812211 35.34106201 15.00047955 35.37996041 12.56347656 35.37304688 C11.8347937 35.3740036 11.10611084 35.37496033 10.35534668 35.37594604 C8.81192946 35.37662773 7.26850939 35.37477425 5.72509766 35.37060547 C3.35475256 35.365257 0.98459697 35.3705508 -1.38574219 35.37695312 C-2.88183636 35.37629234 -4.37793041 35.37501117 -5.87402344 35.37304688 C-6.944328 35.37608322 -6.944328 35.37608322 -8.03625488 35.37918091 C-13.04032152 35.35518629 -13.04032152 35.35518629 -14.15527344 34.24023438 C-14.25610107 31.80362992 -14.29499947 29.39598737 -14.28808594 26.95898438 C-14.28904266 26.23030151 -14.28999939 25.50161865 -14.29098511 24.75085449 C-14.29166679 23.20743727 -14.28981331 21.66401721 -14.28564453 20.12060547 C-14.28029606 17.75026038 -14.28558986 15.38010478 -14.29199219 13.00976562 C-14.2913314 11.51367145 -14.29005024 10.0175774 -14.28808594 8.52148438 C-14.29011017 7.807948 -14.2921344 7.09441162 -14.29421997 6.35925293 C-14.25094701 -2.6653013 -7.36292699 0.01966069 0 0 Z " fill="#005F38" transform="translate(615.1552734375,586.759765625)"/>
<path d="M0 0 C1 2 1 2 0.56666565 3.76960754 C0.3043364 4.48348129 0.04200714 5.19735504 -0.22827148 5.93286133 C-0.52285751 6.74584183 -0.81744354 7.55882233 -1.12095642 8.3964386 C-1.6160244 9.72580696 -1.6160244 9.72580696 -2.12109375 11.08203125 C-2.45867203 12.00602219 -2.79625031 12.93001312 -3.14405823 13.88200378 C-4.23478396 16.86149121 -5.3361413 19.83692888 -6.4375 22.8125 C-7.14584855 24.74519865 -7.85353797 26.67813901 -8.56054688 28.61132812 C-13.26645831 41.44847597 -18.10198494 54.23504073 -23 67 C-26.59753586 65.61744822 -29.41051915 64.12432043 -32.5 61.8125 C-38.36892241 57.59254975 -44.58527856 54.30790494 -51 51 C-49.38275849 46.91792655 -46.45615199 44.19601937 -43.375 41.1875 C-42.87871094 40.69185547 -42.38242187 40.19621094 -41.87109375 39.68554688 C-39.03634688 36.88325894 -36.12097289 34.21558482 -33.1015625 31.61328125 C-28.86128599 27.93759852 -24.92776261 24.00447672 -21 20 C-16.40491438 15.31516662 -11.75103772 10.80321367 -6.76171875 6.53686523 C-4.38720764 4.46542019 -2.19292116 2.26144994 0 0 Z " fill="#FEC934" transform="translate(514,291)"/>
<path d="M0 0 C6.82683105 5.05185498 13.49471032 10.29435528 20.16210938 15.55322266 C21.92273007 16.93917354 23.68707967 18.32018964 25.453125 19.69921875 C31.86322952 24.70782761 38.23335479 29.76439294 44.5625 34.875 C45.56289307 35.6781665 45.56289307 35.6781665 46.58349609 36.49755859 C50.27431386 39.49018963 53.70656282 42.57381392 57 46 C56.11699219 46.61746094 55.23398437 47.23492187 54.32421875 47.87109375 C47.33862696 52.79071729 40.60770453 57.82654849 34.109375 63.3828125 C32 65 32 65 30 65 C29.69521729 64.33508545 29.39043457 63.6701709 29.07641602 62.98510742 C27.57569058 59.71742115 26.07006959 56.45203471 24.5625 53.1875 C24.28209869 52.58029114 24.00169739 51.97308228 23.71279907 51.34747314 C20.00530528 43.33171434 16.2234221 35.3557168 12.3515625 27.41796875 C11.96352951 26.62233017 11.57549652 25.82669159 11.17570496 25.00694275 C9.25297308 21.06918245 7.3233848 17.1349024 5.38696289 13.20385742 C4.67850775 11.75832059 3.97009113 10.31276488 3.26171875 8.8671875 C2.93108429 8.20071701 2.60044983 7.53424652 2.25979614 6.84757996 C0 2.22597584 0 2.22597584 0 0 Z " fill="#FEC933" transform="translate(299,301)"/>
<path d="M0 0 C2 1 2 1 3.30932617 4.69580078 C3.81184102 6.35991957 4.3057233 8.02665903 4.79296875 9.6953125 C5.06013702 10.58729843 5.3273053 11.47928436 5.60256958 12.39830017 C6.47148364 15.3050887 7.32957063 18.21495243 8.1875 21.125 C8.77618592 23.10235588 9.36562224 25.07948851 9.95581055 27.05639648 C11.11519862 30.94180743 12.27114486 34.82821675 13.42480469 38.71533203 C15.62107619 46.10184738 17.88581693 53.46707874 20.1706543 60.82666016 C22 66.78253188 22 66.78253188 22 69 C6.16 69.495 6.16 69.495 -10 70 C-8.875 58.75 -8.875 58.75 -8.06030273 53.35693359 C-7.79013588 51.55619888 -7.79013588 51.55619888 -7.51451111 49.71908569 C-7.32280838 48.45827179 -7.13110565 47.19745789 -6.93359375 45.8984375 C-6.73302539 44.5675475 -6.53267629 43.23662443 -6.33253479 41.90567017 C-5.81029247 38.43665996 -5.28511261 34.96810094 -4.75927734 31.49963379 C-4.22117429 27.94664302 -3.68590912 24.39322482 -3.15039062 20.83984375 C-2.1030059 13.89281308 -1.05251098 6.94625603 0 0 Z " fill="#FECA36" transform="translate(402,263)"/>
<path d="M0 0 C11.69771046 -0.32546049 23.33773889 0.64501722 35 1.4375 C37.05987347 1.57390579 39.11976921 1.70997587 41.1796875 1.84570312 C50.79342663 2.48369843 60.40358088 3.1345165 70 4 C69.608125 5.175625 69.21625 6.35125 68.8125 7.5625 C68.54179687 8.3771875 68.27109375 9.191875 67.9921875 10.03125 C67.25345893 12.24161894 66.50751484 14.44957895 65.7578125 16.65625 C63.5915107 23.05207486 61.48091083 29.40321541 60 36 C50.48221778 30.58582345 41.00496179 25.10693472 31.5625 19.5625 C30.62028091 19.00947708 30.62028091 19.00947708 29.6590271 18.44528198 C14.6663722 9.64366538 14.6663722 9.64366538 7.8125 5.5625 C6.70519531 4.90378906 5.59789062 4.24507813 4.45703125 3.56640625 C2 2 2 2 0 0 Z " fill="#FEC934" transform="translate(238,394)"/>
<path d="M0 0 C0.19110352 0.64960693 0.38220703 1.29921387 0.57910156 1.96850586 C1.46308958 4.96007663 2.35647897 7.94876334 3.25 10.9375 C3.55035156 11.95908203 3.85070312 12.98066406 4.16015625 14.03320312 C6.02759397 20.25137342 8.18423835 26.14739685 11 32 C-0.14744998 33.67464344 -11.28422728 34.65885388 -22.52661133 35.43261719 C-25.32616069 35.62594336 -28.12497582 35.82810553 -30.92382812 36.03125 C-32.73694241 36.15937532 -34.55009236 36.28699723 -36.36328125 36.4140625 C-37.59332634 36.50308334 -37.59332634 36.50308334 -38.84822083 36.59390259 C-44.57254294 36.98150226 -50.26347088 37.06391966 -56 37 C-52.1368673 33.80393575 -48.11908364 31.00068877 -43.9375 28.25 C-43.27049072 27.80809326 -42.60348145 27.36618652 -41.91625977 26.91088867 C-39.94547313 25.60528083 -37.97293211 24.30236268 -36 23 C-30.11058802 19.10306571 -24.24766987 15.17644317 -18.43359375 11.16796875 C-17.43851807 10.48371826 -16.44344238 9.79946777 -15.41821289 9.09448242 C-13.40555656 7.70927755 -11.39557608 6.32017588 -9.38842773 4.92700195 C-8.00119507 3.97313599 -8.00119507 3.97313599 -6.5859375 3 C-5.7511084 2.4225 -4.9162793 1.845 -4.05615234 1.25 C-2 0 -2 0 0 0 Z " fill="#FECA34" transform="translate(298,469)"/>
<path d="M0 0 C-0.77525024 0.54188965 -0.77525024 0.54188965 -1.56616211 1.09472656 C-4.02355146 2.81275564 -6.48055185 4.53134002 -8.9375 6.25 C-9.84612793 6.88534668 -10.75475586 7.52069336 -11.69091797 8.17529297 C-15.96279953 11.16464071 -20.23126857 14.15816242 -24.48046875 17.1796875 C-34.52409451 24.31994975 -44.71041978 31.21901582 -55 38 C-57.60856351 36.69571825 -57.64224002 35.74054787 -58.5859375 33.02734375 C-59.02292969 31.80047852 -59.02292969 31.80047852 -59.46875 30.54882812 C-59.7678125 29.68708984 -60.066875 28.82535156 -60.375 27.9375 C-62.10153032 22.99091422 -63.83178137 18.172147 -66.2265625 13.50390625 C-68 10 -68 10 -68 8 C-26.64514248 2.01121688 -26.64514248 2.01121688 -11.5 0.0625 C-10.53642578 -0.06552002 -9.57285156 -0.19354004 -8.58007812 -0.32543945 C-2.23861597 -1.11930799 -2.23861597 -1.11930799 0 0 Z " fill="#FEC935" transform="translate(585,380)"/>
<path d="M0 0 C3.11909432 1.49672614 5.478846 3.1226655 8.0625 5.4375 C8.73410156 6.03433594 9.40570313 6.63117187 10.09765625 7.24609375 C11.7754479 8.79296942 13.40159243 10.37171566 15 12 C12.76458829 15.38194093 10.51620311 18.75494086 8.2578125 22.12158203 C7.40902503 23.38916177 6.56272591 24.65841079 5.71875 25.92919922 C-0.64280674 35.49283418 -7.40001444 44.38981543 -15 53 C-15.74121094 53.85207031 -16.48242188 54.70414063 -17.24609375 55.58203125 C-18.82364713 57.39447185 -20.40736959 59.20081684 -22 61 C-22.66 60.67 -23.32 60.34 -24 60 C-7.94924527 19.17297641 -7.94924527 19.17297641 0 0 Z " fill="#FEC832" transform="translate(330,533)"/>
<path d="M0 0 C0.99 0.33 1.98 0.66 3 1 C2.29037109 2.07930786 2.29037109 2.07930786 1.56640625 3.18041992 C-0.23180808 5.91739502 -2.02829873 8.65548658 -3.82373047 11.39428711 C-4.59292714 12.56692089 -5.36275794 13.73913902 -6.13330078 14.91088867 C-7.25731558 16.62041968 -8.37883844 18.33156549 -9.5 20.04296875 C-10.1703125 21.06414795 -10.840625 22.08532715 -11.53125 23.13745117 C-15.09425626 28.71204789 -18.53258386 34.36544878 -22 40 C-3.19 40.33 15.62 40.66 35 41 C34.34 41.99 33.68 42.98 33 44 C30.65179443 44.21272278 30.65179443 44.21272278 27.67089844 43.99145508 C26.55503357 43.92021927 25.4391687 43.84898346 24.28948975 43.77558899 C23.07505188 43.69108994 21.86061401 43.60659088 20.609375 43.51953125 C18.03672069 43.4035326 15.46378189 43.29371003 12.890625 43.18945312 C8.82973392 43.02243608 4.77846006 42.82672766 0.7265625 42.50512695 C-14.16309039 40.8957302 -14.16309039 40.8957302 -27.53607178 46.03433228 C-32.00232885 51.24450666 -34.96746433 57.12714419 -37.7722168 63.35379028 C-39.32437721 66.69912189 -41.17971871 69.54515713 -43.2890625 72.56640625 C-43.85753906 73.42041016 -44.42601562 74.27441406 -45.01171875 75.15429688 C-45.81029297 76.34635742 -45.81029297 76.34635742 -46.625 77.5625 C-47.19605469 78.42294922 -47.76710938 79.28339844 -48.35546875 80.16992188 C-51.08416333 84.25663267 -53.83829169 88.22908448 -57 92 C-57.33 91.34 -57.66 90.68 -58 90 C-56.94873047 87.98071289 -56.94873047 87.98071289 -55.2421875 85.41015625 C-54.5934668 84.42289551 -53.94474609 83.43563477 -53.27636719 82.41845703 C-52.91248901 81.87247864 -52.54861084 81.32650024 -52.17370605 80.76397705 C-50.92857373 78.89265259 -49.69607984 77.0134573 -48.46582031 75.13232422 C-45.20839565 70.15436181 -41.93596883 65.18631358 -38.66308594 60.21850586 C-37.25624804 58.08246802 -35.85071932 55.94557333 -34.4453125 53.80859375 C-33.79696945 52.8258976 -33.79696945 52.8258976 -33.13552856 51.823349 C-30.93162569 48.49179289 -30.93162569 48.49179289 -29 45 C-44.84 44.67 -60.68 44.34 -77 44 C-77.66 45.32 -78.32 46.64 -79 48 C-79.99 47.505 -79.99 47.505 -81 47 C-80.505 46.01 -80.505 46.01 -80 45 C-99.305 44.505 -99.305 44.505 -119 44 C-118.34 43.01 -117.68 42.02 -117 41 C-114.04477857 40.79801205 -111.28434249 40.77625179 -108.3359375 40.875 C-106.55601052 40.89172401 -104.77605883 40.90596642 -102.99609375 40.91796875 C-100.1901265 40.95078422 -97.38816107 40.9995649 -94.58349609 41.09228516 C-83.5933326 41.81132899 -83.5933326 41.81132899 -73.97753906 37.5546875 C-71.94270919 34.77257294 -70.38775387 32.14805106 -69 29 C-68.67 28.34 -68.34 27.68 -68 27 C-67.34 27 -66.68 27 -66 27 C-67.15257788 30.35295385 -68.69238839 33.2080308 -70.58203125 36.1875 C-71.03425049 36.90292969 -71.48646973 37.61835938 -71.95239258 38.35546875 C-72.29810303 38.89816406 -72.64381348 39.44085938 -73 40 C-66.43549698 40.25427943 -59.87226848 40.4289559 -53.30395508 40.54931641 C-51.07170161 40.59950123 -48.8397752 40.66766917 -46.60864258 40.75439453 C-34.28736389 41.79782219 -34.28736389 41.79782219 -23.09350586 37.96240234 C-21.26586886 35.36424044 -20.11651483 32.96464435 -19 30 C-18.26649831 28.81970538 -17.50308319 27.65698154 -16.69921875 26.5234375 C-16.03535156 25.48445313 -15.37148438 24.44546875 -14.6875 23.375 C-14.32213135 22.80378418 -13.9567627 22.23256836 -13.58032227 21.64404297 C-8.99953064 14.46344695 -4.49890768 7.23206454 0 0 Z " fill="#EEF2F5" transform="translate(521,442)"/>
<path d="M0 0 C0.99 0.33 1.98 0.66 3 1 C-11 22 -11 22 -25 43 C-23.7838501 42.99476318 -22.5677002 42.98952637 -21.31469727 42.98413086 C13.13701794 42.8500676 47.55630485 43.28447211 82 44 C81.67 44.66 81.34 45.32 81 46 C61.86 46 42.72 46 23 46 C22.34 47.65 21.68 49.3 21 51 C19.64297304 53.16552933 18.2596226 55.27180978 16.8125 57.375 C15.92053568 58.69049913 15.03001109 60.00697515 14.140625 61.32421875 C13.64755859 62.05431152 13.15449219 62.7844043 12.64648438 63.53662109 C8.73216213 69.39301366 4.92150535 75.31853101 1.09106445 81.22998047 C0.47448975 82.1788916 -0.14208496 83.12780273 -0.77734375 84.10546875 C-1.32640381 84.95262451 -1.87546387 85.79978027 -2.44116211 86.67260742 C-5.41890046 91.11846172 -5.41890046 91.11846172 -7 93 C-7.66 93 -8.32 93 -9 93 C-7.74964705 89.59264006 -6.33964822 86.85243492 -4.1875 83.9375 C-0.46842215 78.74482527 3.02586387 73.42175684 6.5 68.0625 C7.03343018 67.24064209 7.56686035 66.41878418 8.11645508 65.57202148 C12.11166759 59.40236144 16.05357902 53.20151868 20 47 C4.16 46.67 -11.68 46.34 -28 46 C-28.66 47.65 -29.32 49.3 -30 51 C-31.28567758 53.07200717 -32.62764594 55.10935497 -34 57.125 C-34.88587579 58.43458537 -35.77124719 59.74451202 -36.65625 61.0546875 C-37.16800781 61.80975586 -37.67976563 62.56482422 -38.20703125 63.34277344 C-41.58423662 68.3478801 -44.92426319 73.37791237 -48.27050781 78.40374756 C-50.25206685 81.37933232 -52.23546834 84.35368824 -54.21875 87.328125 C-55.2387207 88.85808105 -55.2387207 88.85808105 -56.27929688 90.41894531 C-57.51953125 92.27929688 -58.75976562 94.13964844 -60 96 C-60.33 95.01 -60.66 94.02 -61 93 C-59.79544501 90.8526127 -58.54723763 88.93645348 -57.125 86.9375 C-56.20780819 85.60672626 -55.29260697 84.27457937 -54.37890625 82.94140625 C-53.85441895 82.17973145 -53.32993164 81.41805664 -52.78955078 80.63330078 C-49.53309561 75.8414692 -46.37540188 70.98436715 -43.20965576 66.13235474 C-42.07594013 64.39558925 -40.93982185 62.6604165 -39.80322266 60.92553711 C-39.09601074 59.84409424 -38.38879883 58.76265137 -37.66015625 57.6484375 C-36.71088257 56.19703369 -36.71088257 56.19703369 -35.74243164 54.71630859 C-34.11235055 52.17514532 -32.55328945 49.58881575 -31 47 C-36.61 46.67 -42.22 46.34 -48 46 C-48 45.34 -48 44.68 -48 44 C-46.77667969 44.26425781 -45.55335938 44.52851562 -44.29296875 44.80078125 C-38.44852387 45.5662018 -33.37229115 45.68335816 -28 43 C-20.85556218 35.85294613 -16.08674009 26.62364994 -11.20166016 17.85791016 C-7.75677131 11.72707629 -3.86063658 5.87419008 0 0 Z " fill="#FAFBFC" transform="translate(439,490)"/>
<path d="M0 0 C0.66 0 1.32 0 2 0 C0.28053018 5.00209402 -2.01818626 8.22909802 -5 13 C10.18 13.33 25.36 13.66 41 14 C40.67 14.99 40.34 15.98 40 17 C23.83 17 7.66 17 -9 17 C-9.66 18.32 -10.32 19.64 -11 21 C-11.66 20.67 -12.32 20.34 -13 20 C-12.67 19.34 -12.34 18.68 -12 18 C-31.305 17.505 -31.305 17.505 -51 17 C-50.01 15.515 -50.01 15.515 -49 14 C-46.04477857 13.79801205 -43.28434249 13.77625179 -40.3359375 13.875 C-38.55601052 13.89172401 -36.77605883 13.90596642 -34.99609375 13.91796875 C-32.1901265 13.95078422 -29.38816107 13.9995649 -26.58349609 14.09228516 C-15.5933326 14.81132899 -15.5933326 14.81132899 -5.97753906 10.5546875 C-3.94270919 7.77257294 -2.38775387 5.14805106 -1 2 C-0.67 1.34 -0.34 0.68 0 0 Z " fill="#96ABBD" transform="translate(453,469)"/>
<path d="M0 0 C2.20383585 -0.00969571 4.40673525 -0.04070084 6.61035156 -0.07226562 C8.00878351 -0.07879652 9.40722215 -0.08404665 10.80566406 -0.08789062 C12.08231934 -0.09723633 13.35897461 -0.10658203 14.67431641 -0.11621094 C17.84472656 0.24023438 17.84472656 0.24023438 19.76416016 1.32080078 C21.43820051 4.29443505 21.19764705 6.8921474 21.17285156 10.27929688 C21.17097839 10.96075775 21.16910522 11.64221863 21.16717529 12.34432983 C21.16046262 13.78168649 21.14656349 15.21902511 21.12597656 16.65625 C21.09474256 18.8641036 21.08499756 21.07124397 21.07910156 23.27929688 C21.00819084 34.0767701 21.00819084 34.0767701 19.84472656 35.24023438 C17.40812211 35.34106201 15.00047955 35.37996041 12.56347656 35.37304688 C11.8347937 35.3740036 11.10611084 35.37496033 10.35534668 35.37594604 C8.81192946 35.37662773 7.26850939 35.37477425 5.72509766 35.37060547 C3.35475256 35.365257 0.98459697 35.3705508 -1.38574219 35.37695312 C-2.88183636 35.37629234 -4.37793041 35.37501117 -5.87402344 35.37304688 C-6.944328 35.37608322 -6.944328 35.37608322 -8.03625488 35.37918091 C-13.04032152 35.35518629 -13.04032152 35.35518629 -14.15527344 34.24023438 C-14.25610107 31.80362992 -14.29499947 29.39598737 -14.28808594 26.95898438 C-14.28904266 26.23030151 -14.28999939 25.50161865 -14.29098511 24.75085449 C-14.29166679 23.20743727 -14.28981331 21.66401721 -14.28564453 20.12060547 C-14.28029606 17.75026038 -14.28558986 15.38010478 -14.29199219 13.00976562 C-14.2913314 11.51367145 -14.29005024 10.0175774 -14.28808594 8.52148438 C-14.29011017 7.807948 -14.2921344 7.09441162 -14.29421997 6.35925293 C-14.25094701 -2.6653013 -7.36292699 0.01966069 0 0 Z M-12.15527344 2.24023438 C-12.15527344 12.80023437 -12.15527344 23.36023438 -12.15527344 34.24023438 C-1.92527344 34.24023438 8.30472656 34.24023438 18.84472656 34.24023438 C18.84472656 23.68023438 18.84472656 13.12023437 18.84472656 2.24023438 C8.61472656 2.24023438 -1.61527344 2.24023438 -12.15527344 2.24023438 Z " fill="#0A5128" transform="translate(615.1552734375,586.759765625)"/>
<path d="M0 0 C2 2 2 2 4 11 C-25.04 11 -54.08 11 -84 11 C-81.08758861 8.08758861 -78.05800754 8.6921207 -74.15380859 8.68115234 C-73.34397018 8.67110672 -72.53413177 8.6610611 -71.69975281 8.65071106 C-69.01598844 8.61975596 -66.33232436 8.6028099 -63.6484375 8.5859375 C-61.79040659 8.56723575 -59.93238426 8.54766309 -58.07437134 8.5272522 C-53.17864021 8.47582004 -48.28288152 8.43625379 -43.38702393 8.39910889 C-38.39336261 8.35913855 -33.39981708 8.3080145 -28.40625 8.2578125 C-18.60424787 8.16092206 -8.80218053 8.07655942 1 8 C0.505 4.04 0.505 4.04 0 0 Z " fill="#FEC725" transform="translate(510,416)"/>
<path d="M0 0 C1.04590805 0.0199855 2.0918161 0.03997101 3.16941833 0.06056213 C4.35056717 0.08065842 5.531716 0.1007547 6.74865723 0.12145996 C8.03404892 0.14849503 9.31944061 0.17553009 10.64378357 0.2033844 C11.95193527 0.22699539 13.26008698 0.25060638 14.60787964 0.27493286 C18.09158255 0.33786801 21.57513913 0.40690765 25.05870056 0.47718811 C28.61108212 0.54778666 32.16356771 0.61265428 35.71604919 0.67799377 C42.69077167 0.80712753 49.66535639 0.94270587 56.63987732 1.08229065 C55.97987732 2.07229065 55.31987732 3.06229065 54.63987732 4.08229065 C52.21092224 4.43632507 52.21092224 4.43632507 49.12034607 4.40699768 C47.9657489 4.4035434 46.81115173 4.40008911 45.62156677 4.39653015 C44.36948425 4.37790924 43.11740173 4.35928833 41.82737732 4.34010315 C39.87237596 4.32999585 37.91737457 4.31989296 35.96237183 4.31005669 C33.21897596 4.29248764 30.47579887 4.26113824 27.73252869 4.22999573 C22.93198381 4.17791025 18.13128156 4.14533186 13.33055115 4.11595154 C10.77304706 4.09890554 8.21557555 4.07570855 5.65818787 4.04594421 C4.5035907 4.03618561 3.34899353 4.026427 2.15940857 4.01637268 C1.13951843 4.00510345 0.1196283 3.99383423 -0.9311676 3.98222351 C-3.37009043 3.91643388 -3.37009043 3.91643388 -5.36012268 5.08229065 C-2.95073212 0.10288349 -2.95073212 0.10288349 0 0 Z " fill="#D2DBE4" transform="translate(499.36012268066406,481.91770935058594)"/>
<path d="M0 0 C0.66 0.99 1.32 1.98 2 3 C1.51756836 3.71841064 1.03513672 4.43682129 0.53808594 5.17700195 C-9.17841643 19.66050447 -18.79572307 34.1829189 -28 49 C-28.66 48.34 -29.32 47.68 -30 47 C-25.99812018 40.64367382 -21.92547583 34.3383221 -17.79296875 28.06640625 C-17.33785919 27.3754184 -16.88274963 26.68443054 -16.41384888 25.97250366 C-14.5235708 23.10380744 -12.63231889 20.23576169 -10.73852539 17.36938477 C-9.33804994 15.24884122 -7.94031752 13.12651099 -6.54296875 11.00390625 C-6.11590134 10.35909805 -5.68883392 9.71428986 -5.24882507 9.04994202 C-3.31440219 6.10783322 -1.46891512 3.20476912 0 0 Z " fill="#E3E8EE" transform="translate(493,485)"/>
<path d="M0 0 C0.99 0.33 1.98 0.66 3 1 C2.34257812 1.98613281 1.68515625 2.97226562 1.0078125 3.98828125 C0.55841309 4.66238037 0.10901367 5.33647949 -0.35400391 6.03100586 C-3.61124674 10.91687012 -6.86848958 15.80273438 -10.12573242 20.68859863 C-10.51414307 21.2712146 -10.90255371 21.85383057 -11.30273438 22.45410156 C-12.92985026 24.89477539 -14.55696615 27.33544922 -16.18408203 29.77612305 C-16.58773987 30.3816098 -16.99139771 30.98709656 -17.4072876 31.6109314 C-21.27152507 37.4072876 -25.13576253 43.2036438 -29 49 C-29.495 47.515 -29.495 47.515 -30 46 C-28.79544501 43.8526127 -27.54723763 41.93645348 -26.125 39.9375 C-25.20780819 38.60672626 -24.29260697 37.27457937 -23.37890625 35.94140625 C-22.85441895 35.17973145 -22.32993164 34.41805664 -21.78955078 33.63330078 C-18.53309561 28.8414692 -15.37540188 23.98436715 -12.20965576 19.13235474 C-11.07594013 17.39558925 -9.93982185 15.6604165 -8.80322266 13.92553711 C-8.09601074 12.84409424 -7.38879883 11.76265137 -6.66015625 10.6484375 C-6.02730713 9.68083496 -5.39445801 8.71323242 -4.74243164 7.71630859 C-3.11037656 5.17206805 -1.53995363 2.60079743 0 0 Z " fill="#E5EBEF" transform="translate(408,537)"/>
<path d="M0 0 C0.99 0.33 1.98 0.66 3 1 C2.17822266 2.22396484 2.17822266 2.22396484 1.33984375 3.47265625 C-4.82199571 12.67364699 -10.88602407 21.93589148 -16.90844727 31.22875977 C-17.52518311 32.17807373 -18.14191895 33.1273877 -18.77734375 34.10546875 C-19.32640381 34.95262451 -19.87546387 35.79978027 -20.44116211 36.67260742 C-23.41890046 41.11846172 -23.41890046 41.11846172 -25 43 C-25.66 43 -26.32 43 -27 43 C-25.74964705 39.59264006 -24.33964822 36.85243492 -22.1875 33.9375 C-18.42402656 28.68448339 -14.89094255 23.29638216 -11.375 17.875 C-10.82481201 17.02800537 -10.27462402 16.18101074 -9.70776367 15.30834961 C-6.42187235 10.2358198 -3.18934258 5.13377449 0 0 Z " fill="#E7ECF1" transform="translate(457,540)"/>
<path d="M0 0 C0.99 0.33 1.98 0.66 3 1 C2.64397705 1.53141602 2.2879541 2.06283203 1.92114258 2.61035156 C-6.82419452 15.67311319 -15.4671474 28.79745908 -24 42 C-24.99 41.67 -25.98 41.34 -27 41 C-26.50185791 40.25540527 -26.00371582 39.51081055 -25.49047852 38.74365234 C-12.57917513 19.48054927 -12.57917513 19.48054927 0 0 Z " fill="#E7ECF0" transform="translate(439,490)"/>
<path d="M0 0 C0.99 0.33 1.98 0.66 3 1 C0.54563232 4.79424754 -1.91416022 8.58494749 -4.375 12.375 C-5.42300781 13.99535156 -5.42300781 13.99535156 -6.4921875 15.6484375 C-7.1625 16.6796875 -7.8328125 17.7109375 -8.5234375 18.7734375 C-9.14138184 19.72653809 -9.75932617 20.67963867 -10.39599609 21.66162109 C-12 24 -12 24 -14 26 C-14 21.66756255 -13.50782672 20.76562286 -11.19140625 17.3046875 C-10.60939453 16.42425781 -10.02738281 15.54382813 -9.42773438 14.63671875 C-8.50444336 13.26966797 -8.50444336 13.26966797 -7.5625 11.875 C-6.35483332 10.06031855 -5.14777173 8.24523422 -3.94140625 6.4296875 C-3.40201416 5.62772949 -2.86262207 4.82577148 -2.30688477 3.99951172 C-0.97415043 2.04413467 -0.97415043 2.04413467 0 0 Z " fill="#DDE4EA" transform="translate(469,444)"/>
<path d="M0 0 C0.33 0 0.66 0 1 0 C1.08196118 4.18001995 0.89445704 7.92212105 0 12 C0.89525391 11.87431641 0.89525391 11.87431641 1.80859375 11.74609375 C10.62192678 10.71154203 19.18736787 11.32846297 28 12 C28 12.33 28 12.66 28 13 C18.1 13.33 8.2 13.66 -2 14 C-1 4 -1 4 0 0 Z " fill="#FECE47" transform="translate(394,319)"/>
<path d="M0 0 C2 1 2 1 3.10546875 4.01953125 C3.46253906 5.27121094 3.81960938 6.52289063 4.1875 7.8125 C4.55230469 9.05644531 4.91710937 10.30039062 5.29296875 11.58203125 C5.93153419 14.66901886 6.13382109 16.13294922 5 19 C3.74335022 16.09399739 3 14.20395416 3 11 C0.66924071 11.95865509 0.66924071 11.95865509 -1 15 C-1.09038099 9.84828377 -0.84681133 5.08086796 0 0 Z " fill="#FCC428" transform="translate(402,263)"/>
<path d="M0 0 C2 2 2 2 4 11 C-5.9 11 -15.8 11 -26 11 C-26 10.67 -26 10.34 -26 10 C-17.09 9.67 -8.18 9.34 1 9 C0.67 6.03 0.34 3.06 0 0 Z " fill="#FEC627" transform="translate(510,416)"/>
<path d="M0 0 C0.99 0.33 1.98 0.66 3 1 C-0.96 6.94 -4.92 12.88 -9 19 C-9.99 18.67 -10.98 18.34 -12 18 C-8.04 12.06 -4.08 6.12 0 0 Z " fill="#DDE4EA" transform="translate(424,513)"/>
<path d="M0 0 C-4.29 2.97 -8.58 5.94 -13 9 C-13.66 8.67 -14.32 8.34 -15 8 C-13.35 6.35 -11.7 4.7 -10 3 C-11.32 2.34 -12.64 1.68 -14 1 C-12.04310963 0.63794536 -10.08442332 0.28558579 -8.125 -0.0625 C-7.03445313 -0.25972656 -5.94390625 -0.45695312 -4.8203125 -0.66015625 C-2 -1 -2 -1 0 0 Z " fill="#FDC321" transform="translate(585,380)"/>
<path d="M0 0 C2.64 1.98 5.28 3.96 8 6 C7.01 7.485 7.01 7.485 6 9 C6.30840599 11.15274948 6.30840599 11.15274948 7 13 C4.64283596 10.84545751 3.21033856 8.80280126 1.8125 5.9375 C1.29623047 4.89916016 1.29623047 4.89916016 0.76953125 3.83984375 C0 2 0 2 0 0 Z " fill="#FCC427" transform="translate(299,301)"/>
<path d="M0 0 C0.33 0.66 0.66 1.32 1 2 C0.06421005 4.35981813 -0.93347808 6.69631264 -2 9 C-2.33 8.01 -2.66 7.02 -3 6 C-5.2477975 8.05233685 -6.0022242 9.00667261 -7 12 C-8.32 11.67 -9.64 11.34 -11 11 C-7.37 7.37 -3.74 3.74 0 0 Z " fill="#FCC11A" transform="translate(514,291)"/>
<path d="M0 0 C4.91935902 4.11619836 9.52647956 8.40410362 14 13 C13.34 13.66 12.68 14.32 12 15 C9.99390948 12.88046983 7.99506397 10.75486559 6 8.625 C5.42765625 8.02171875 4.8553125 7.4184375 4.265625 6.796875 C3.72421875 6.21679688 3.1828125 5.63671875 2.625 5.0390625 C1.87089844 4.23782959 1.87089844 4.23782959 1.1015625 3.42041016 C0 2 0 2 0 0 Z " fill="#1B5C36" transform="translate(251,740)"/>
<path d="M0 0 C6.7685324 -0.10152799 13.30324864 -0.03026944 20 1 C20 1.33 20 1.66 20 2 C17.41718562 2.24927162 14.83587772 2.47499275 12.25 2.6875 C11.15558594 2.79674805 11.15558594 2.79674805 10.0390625 2.90820312 C6.62073925 3.17234629 4.48441691 3.28508387 1.484375 1.51953125 C0.99453125 1.01808594 0.5046875 0.51664062 0 0 Z " fill="#FDC327" transform="translate(238,394)"/>
<path d="M0 0 C4.95 0.33 9.9 0.66 15 1 C15 1.33 15 1.66 15 2 C10.38 2.33 5.76 2.66 1 3 C1 3.99 1 4.98 1 6 C-0.32 6.33 -1.64 6.66 -3 7 C-3 7.66 -3 8.32 -3 9 C-3.66 8.67 -4.32 8.34 -5 8 C-3.35 5.36 -1.7 2.72 0 0 Z " fill="#1D456A" transform="translate(462,536)"/>
<path d="M0 0 C0.33 0.66 0.66 1.32 1 2 C4.3 2 7.6 2 11 2 C11 2.33 11 2.66 11 3 C5.63904667 4.12862175 0.44693314 4.09688221 -5 4 C-3.35 2.68 -1.7 1.36 0 0 Z " fill="#FEC320" transform="translate(247,502)"/>
<path d="M0 0 C2 2 2 2 3 7 C-3.27 6.67 -9.54 6.34 -16 6 C-16 5.67 -16 5.34 -16 5 C-8.08 4.505 -8.08 4.505 0 4 C0 2.68 0 1.36 0 0 Z " fill="#FEBF10" transform="translate(421,325)"/>
<path d="M0 0 C0.66 0 1.32 0 2 0 C0.35821735 4.77609498 -2.26546702 8.79382904 -5 13 C-5.66 12.34 -6.32 11.68 -7 11 C-5.88368586 9.16136495 -4.75670373 7.32920277 -3.625 5.5 C-2.99851562 4.4790625 -2.37203125 3.458125 -1.7265625 2.40625 C-1.15679687 1.6121875 -0.58703125 0.818125 0 0 Z " fill="#EBEFF3" transform="translate(453,469)"/>
<path d="M0 0 C1.32 0.33 2.64 0.66 4 1 C1.36 3.64 -1.28 6.28 -4 9 C-4.66 8.67 -5.32 8.34 -6 8 C-4.02 5.36 -2.04 2.72 0 0 Z " fill="#06522A" transform="translate(313,614)"/>
<path d="M0 0 C0.99 0.33 1.98 0.66 3 1 C3.6875 3.0625 3.6875 3.0625 4 5 C1.69 5 -0.62 5 -3 5 C-2.01 3.35 -1.02 1.7 0 0 Z " fill="#1F4A6E" transform="translate(468,528)"/>
<path d="M0 0 C1.65 1.65 3.3 3.3 5 5 C4.05125 4.979375 3.1025 4.95875 2.125 4.9375 C-0.90666283 4.77448174 -0.90666283 4.77448174 -3 6 C-1.125 1.125 -1.125 1.125 0 0 Z " fill="#074C25" transform="translate(593,447)"/>
<path d="M0 0 C0.66 0.99 1.32 1.98 2 3 C0.02 5.64 -1.96 8.28 -4 11 C-4.33 10.34 -4.66 9.68 -5 9 C-4.00390625 6.8359375 -4.00390625 6.8359375 -2.5625 4.375 C-2.08941406 3.55773437 -1.61632812 2.74046875 -1.12890625 1.8984375 C-0.75636719 1.27195312 -0.38382812 0.64546875 0 0 Z " fill="#E9EDF1" transform="translate(493,485)"/>
<path d="M0 0 C0.66 0.99 1.32 1.98 2 3 C0.16172132 6.15133488 -1.75972706 9.11964908 -4 12 C-3.33501617 7.61110675 -1.81242323 4.0188515 0 0 Z " fill="#06491E" transform="translate(844,625)"/>
<path d="M0 0 C0.99 0.33 1.98 0.66 3 1 C2.21654285 2.17219543 1.42297164 3.33763668 0.625 4.5 C0.18414062 5.1496875 -0.25671875 5.799375 -0.7109375 6.46875 C-1.13632812 6.9740625 -1.56171875 7.479375 -2 8 C-2.66 8 -3.32 8 -4 8 C-2.87548273 5.0280615 -1.77706209 2.66559313 0 0 Z " fill="#DEE5EC" transform="translate(457,540)"/>
<path d="M0 0 C2 1 2 1 3 3 C2.01 3 1.02 3 0 3 C-0.66 4.32 -1.32 5.64 -2 7 C-2.66 6.67 -3.32 6.34 -4 6 C-2.25 1.125 -2.25 1.125 0 0 Z " fill="#F1F5F7" transform="translate(462,533)"/>
<path d="M0 0 C0.99 0 1.98 0 3 0 C3.33 3.3 3.66 6.6 4 10 C1.04816899 7.04816899 0.91336012 4.04488053 0 0 Z " fill="#064C24" transform="translate(849,401)"/>
<path d="M0 0 C1 2 1 2 0.3125 4.5 C-1.15567038 7.29651501 -2.09303901 7.93411431 -5 9 C-3.7508258 5.54074837 -2.32472205 2.85306797 0 0 Z " fill="#044620" transform="translate(583,462)"/>
</svg>
